<svg width="1200" height="500" viewBox="0 0 1200 500" fill="none" xmlns="http://www.w3.org/2000/svg">
<g clip-path="url(#clip0_5420_119889)">
<path d="M44.5893 496H0.189344V297.68H44.5893V496ZM221.033 496H176.633V410.456C176.633 400.195 174.561 392.992 170.417 388.848C166.273 384.507 158.577 382.336 147.329 382.336C140.225 382.336 134.404 383.224 129.865 385C125.524 386.776 122.268 389.835 120.097 394.176C117.926 398.32 116.841 404.141 116.841 411.64H110.625L107.073 373.16H115.657C118.42 367.437 121.972 362.405 126.313 358.064C130.852 353.723 136.377 350.368 142.889 348C149.401 345.435 156.998 344.152 165.681 344.152C178.705 344.152 189.262 346.717 197.353 351.848C205.444 356.979 211.364 363.984 215.113 372.864C219.06 381.547 221.033 391.117 221.033 401.576V496ZM116.841 496H72.7371V347.112H113.881V389.144L116.841 390.624V496ZM342.203 496H285.667L227.947 347.112H277.379L312.899 453.376H316.155L351.675 347.112H400.219L342.203 496ZM477.066 498.96C461.082 498.96 447.367 495.803 435.922 489.488C424.477 483.173 415.695 474.195 409.578 462.552C403.658 450.909 400.698 437.293 400.698 421.704C400.698 405.917 403.658 392.203 409.578 380.56C415.695 368.917 424.477 359.939 435.922 353.624C447.367 347.309 461.082 344.152 477.066 344.152C493.05 344.152 506.567 347.309 517.618 353.624C528.866 359.939 537.45 368.917 543.37 380.56C549.487 392.203 552.546 405.917 552.546 421.704C552.546 437.293 549.487 450.909 543.37 462.552C537.45 474.195 528.866 483.173 517.618 489.488C506.567 495.803 493.05 498.96 477.066 498.96ZM477.066 459.888C489.103 459.888 497.49 457.125 502.226 451.6C506.962 446.075 509.33 436.109 509.33 421.704C509.33 407.101 506.962 397.037 502.226 391.512C497.49 385.987 489.103 383.224 477.066 383.224C465.029 383.224 456.543 385.987 451.61 391.512C446.874 397.037 444.506 407.101 444.506 421.704C444.506 436.109 446.874 446.075 451.61 451.6C456.543 457.125 465.029 459.888 477.066 459.888ZM619.246 496H574.846V297.68H619.246V496ZM726.102 496H587.278V456.04H726.102V496ZM721.662 416.08H587.278V376.416H721.662V416.08ZM726.102 337.64H587.278V297.68H726.102V337.64ZM883.534 496H842.39V469.952L841.502 461.368V403.648C841.502 394.965 839.233 389.341 834.694 386.776C830.156 384.211 823.446 382.928 814.566 382.928C805.686 382.928 799.273 384.408 795.326 387.368C791.38 390.328 789.406 395.557 789.406 403.056V406.312H747.078V403.056C747.078 391.216 749.94 380.856 755.662 371.976C761.582 363.096 769.673 356.288 779.934 351.552C790.393 346.619 802.628 344.152 816.638 344.152C831.241 344.152 843.476 346.717 853.342 351.848C863.406 356.781 870.905 363.984 875.838 373.456C880.969 382.928 883.534 394.373 883.534 407.792V496ZM789.998 498.96C776.777 498.96 765.628 495.507 756.55 488.6C747.67 481.693 743.23 471.531 743.23 458.112C743.23 450.416 745.006 443.707 748.558 437.984C752.308 432.261 757.636 427.624 764.542 424.072C771.646 420.323 780.329 417.659 790.59 416.08L844.462 408.088V436.8L798.878 443.904C794.34 444.693 790.985 445.877 788.814 447.456C786.644 449.035 785.558 451.403 785.558 454.56C785.558 458.507 787.137 461.269 790.294 462.848C793.452 464.427 798.286 465.216 804.798 465.216C810.916 465.216 816.737 464.525 822.262 463.144C827.985 461.565 832.622 458.803 836.174 454.856C839.726 450.712 841.502 444.792 841.502 437.096L845.646 475.872H840.614C838.049 479.424 834.497 482.976 829.958 486.528C825.617 490.08 820.19 493.04 813.678 495.408C807.166 497.776 799.273 498.96 789.998 498.96ZM974.7 498.96C951.415 498.96 933.951 494.52 922.308 485.64C910.863 476.76 905.14 463.341 905.14 445.384V444.496H947.468V450.712C947.468 454.264 948.356 457.027 950.132 459C951.908 460.973 954.769 462.355 958.716 463.144C962.86 463.736 968.484 464.032 975.588 464.032C981.705 464.032 986.244 463.736 989.204 463.144C992.164 462.355 994.137 461.269 995.124 459.888C996.111 458.309 996.604 456.336 996.604 453.968C996.604 449.824 995.025 447.061 991.868 445.68C988.908 444.101 982.495 442.424 972.628 440.648L950.132 436.504C940.463 434.728 932.273 432.064 925.564 428.512C918.855 424.96 913.724 420.224 910.172 414.304C906.62 408.187 904.844 400.491 904.844 391.216C904.844 377.403 910.271 366.155 921.124 357.472C932.175 348.592 948.356 344.152 969.668 344.152C981.903 344.152 992.855 346.027 1002.52 349.776C1012.19 353.525 1019.79 359.149 1025.32 366.648C1031.04 374.147 1033.9 383.52 1033.9 394.768V398.912H991.572V394.768C991.572 391.413 990.98 388.651 989.796 386.48C988.612 384.112 986.343 382.435 982.988 381.448C979.633 380.264 974.799 379.672 968.484 379.672C959.604 379.672 953.684 380.659 950.724 382.632C947.961 384.408 946.58 387.072 946.58 390.624C946.58 394.176 947.764 396.741 950.132 398.32C952.5 399.899 958.124 401.576 967.004 403.352L994.236 408.976C1004.69 410.949 1013.18 413.909 1019.69 417.856C1026.2 421.605 1030.94 426.44 1033.9 432.36C1037.06 438.28 1038.64 445.285 1038.64 453.376C1038.64 467.387 1033.11 478.536 1022.06 486.824C1011.21 494.915 995.42 498.96 974.7 498.96ZM1127.99 498.96C1111.02 498.96 1097.01 495.803 1085.96 489.488C1074.91 483.173 1066.72 474.293 1061.39 462.848C1056.07 451.205 1053.4 437.589 1053.4 422C1053.4 406.016 1056.36 392.203 1062.28 380.56C1068.4 368.917 1077.08 359.939 1088.33 353.624C1099.58 347.309 1112.9 344.152 1128.29 344.152C1143.29 344.152 1156.01 346.915 1166.47 352.44C1177.13 357.965 1185.22 365.661 1190.75 375.528C1196.47 385.197 1199.33 396.544 1199.33 409.568C1199.33 413.712 1199.03 417.757 1198.44 421.704C1198.05 425.651 1197.65 428.907 1197.26 431.472H1072.94V404.536H1159.37L1156.41 406.904C1157.2 401.181 1156.51 396.445 1154.34 392.696C1152.36 388.749 1149.01 385.789 1144.27 383.816C1139.73 381.645 1133.91 380.56 1126.81 380.56C1114.57 380.56 1106.19 383.323 1101.65 388.848C1097.11 394.373 1094.84 402.267 1094.84 412.528V425.552C1094.84 433.84 1095.73 440.549 1097.51 445.68C1099.48 450.811 1102.93 454.56 1107.87 456.928C1112.8 459.296 1119.71 460.48 1128.59 460.48C1137.47 460.48 1143.88 459.493 1147.83 457.52C1151.97 455.349 1154.04 451.995 1154.04 447.456V445.68H1197.85V448.64C1197.85 459.296 1194.99 468.373 1189.27 475.872C1183.54 483.371 1175.45 489.093 1164.99 493.04C1154.53 496.987 1142.2 498.96 1127.99 498.96Z" fill="url(#paint0_linear_5420_119889)" fill-opacity="0.8"/>
</g>
<defs>
<linearGradient id="paint0_linear_5420_119889" x1="598" y1="130.5" x2="598" y2="482.5" gradientUnits="userSpaceOnUse">
<stop stop-color="#362A2A" stop-opacity="0.6"/>
<stop offset="1" stop-color="white" stop-opacity="0"/>
</linearGradient>
<clipPath id="clip0_5420_119889">
<rect width="1200" height="500" fill="white"/>
</clipPath>
</defs>
</svg>
